<svg id="visual" viewBox="0 0 900 600" width="900" height="600" xmlns="http://www.w3.org/2000/svg" xmlns:xlink="http://www.w3.org/1999/xlink" version="1.1"><rect x="0" y="0" width="900" height="600" fill="#bcffdd"></rect><defs><linearGradient id="grad1_0" x1="33.3%" y1="0%" x2="100%" y2="100%"><stop offset="20%" stop-color="#29ab87" stop-opacity="1"></stop><stop offset="80%" stop-color="#29ab87" stop-opacity="1"></stop></linearGradient></defs><defs><linearGradient id="grad1_1" x1="33.3%" y1="0%" x2="100%" y2="100%"><stop offset="20%" stop-color="#29ab87" stop-opacity="1"></stop><stop offset="80%" stop-color="#bcffdd" stop-opacity="1"></stop></linearGradient></defs><defs><linearGradient id="grad2_0" x1="0%" y1="0%" x2="66.7%" y2="100%"><stop offset="20%" stop-color="#29ab87" stop-opacity="1"></stop><stop offset="80%" stop-color="#29ab87" stop-opacity="1"></stop></linearGradient></defs><defs><linearGradient id="grad2_1" x1="0%" y1="0%" x2="66.7%" y2="100%"><stop offset="20%" stop-color="#bcffdd" stop-opacity="1"></stop><stop offset="80%" stop-color="#29ab87" stop-opacity="1"></stop></linearGradient></defs><g transform="translate(900, 0)"><path d="M0 351.5C-57.4 335.8 -114.7 320 -169 292.7C-223.3 265.4 -274.5 226.5 -304.4 175.8C-334.4 125.1 -342.9 62.5 -351.5 0L0 0Z" fill="#7bd5b0"></path><path d="M0 175.8C-28.7 167.9 -57.4 160 -84.5 146.4C-111.6 132.7 -137.3 113.2 -152.2 87.9C-167.2 62.5 -171.5 31.3 -175.8 0L0 0Z" fill="#29ab87"></path></g><g transform="translate(0, 600)"><path d="M0 -351.5C61.1 -342.1 122.3 -332.8 175.8 -304.4C229.3 -276.1 275.1 -228.9 303.1 -175C331.1 -121.1 341.3 -60.6 351.5 0L0 0Z" fill="#7bd5b0"></path><path d="M0 -175.8C30.6 -171.1 61.1 -166.4 87.9 -152.2C114.6 -138.1 137.5 -114.4 151.6 -87.5C165.6 -60.6 170.7 -30.3 175.8 0L0 0Z" fill="#29ab87"></path></g></svg>